<svg version="1.1" width="434" height="96" viewBox="-1 -1 434 96" xmlns="http://www.w3.org/2000/svg" xmlns:xlink="http://www.w3.org/1999/xlink">
  <!-- Exported by Scratch - http://scratch.mit.edu/ -->
  <g id="ID0.31490043085068464">
    <g id="ID0.9779037935659289">
      <g id="ID0.7365824249573052">
        <path id="ID0.4301184406504035" fill="#FF4141" d="M 21.929 59.965 C 13.035 59.965 8.589 56.188 8.589 48.635 C 8.589 40.757 12.832 33.224 21.320 26.036 C 25.015 22.869 29.248 20.311 34.020 18.361 C 38.791 16.412 43.147 15.438 47.086 15.438 C 51.025 15.438 54.578 16.026 57.746 17.204 L 54.883 82.929 L 82.354 17.204 L 100.324 17.204 L 87.228 109 L 69.258 109 L 77.238 52.960 L 53.786 109 L 36.670 109 L 39.167 52.716 L 18.335 109 L 8.345 109 L 40.020 23.295 C 33.807 25.366 28.954 28.777 25.462 33.529 C 21.969 38.280 20.223 44.229 20.223 51.376 C 20.223 54.950 20.710 57.549 21.685 59.173 C 21.847 59.457 21.929 59.721 21.929 59.965 Z Z M 150.333 86.645 C 140.993 102.036 129.562 109.731 116.039 109.731 C 110.111 109.731 105.380 108.198 101.847 105.132 C 98.314 102.066 96.547 97 96.547 89.934 C 96.547 80.432 98.963 71.234 103.796 62.341 C 107.491 55.559 112.527 50.726 118.902 47.843 C 122.192 46.300 125.603 45.529 129.136 45.529 C 134.902 45.529 138.821 46.615 140.892 48.787 C 142.963 50.960 143.999 53.853 143.999 57.468 C 143.999 64.574 141.136 70.615 135.410 75.589 C 129.684 80.564 122.984 83.295 115.308 83.782 C 115.105 86.137 115.004 87.802 115.004 88.777 C 115.004 93.041 115.755 95.853 117.258 97.213 C 118.760 98.574 120.872 99.254 123.593 99.254 C 128.384 99.254 132.415 98.188 135.684 96.056 C 138.953 93.924 142.415 90.787 146.070 86.645 L 150.333 86.645 Z M 134.374 56.615 C 134.374 53.610 133.339 52.107 131.268 52.107 C 128.222 52.188 125.278 54.879 122.435 60.178 C 119.593 65.478 117.542 71.356 116.283 77.813 C 121.075 77.488 125.288 75.254 128.923 71.112 C 132.557 66.970 134.374 62.138 134.374 56.615 Z Z M 176.892 45.529 C 186.881 45.529 191.876 49.305 191.876 56.858 C 191.876 60.026 191.226 62.351 189.927 63.833 C 188.628 65.315 187.166 66.056 185.541 66.056 C 183.917 66.056 182.353 65.569 180.851 64.594 C 181.866 61.914 182.374 59.457 182.374 57.224 C 182.374 53.813 181.186 52.107 178.810 52.107 C 176.435 52.107 173.927 54.259 171.288 58.564 C 167.511 64.655 164.912 72.229 163.491 81.285 C 163.085 84.005 162.882 86.990 162.882 90.239 C 162.882 96.249 165.745 99.254 171.470 99.254 C 176.262 99.254 180.293 98.188 183.562 96.056 C 186.831 93.924 190.292 90.787 193.947 86.645 L 198.211 86.645 C 188.871 102.036 177.440 109.731 163.917 109.731 C 157.988 109.731 153.257 108.198 149.724 105.132 C 146.191 102.066 144.425 97 144.425 89.934 C 144.425 80.391 146.841 71.173 151.674 62.280 C 155.328 55.579 160.344 50.767 166.719 47.843 C 170.008 46.300 173.399 45.529 176.892 45.529 Z Z M 262.170 86.645 C 256.891 102.036 248.546 109.731 237.135 109.731 C 229.703 109.731 225.581 105.792 224.769 97.914 C 219.896 105.792 213.744 109.731 206.313 109.731 C 202.577 109.731 199.409 108.553 196.810 106.198 C 194.252 103.843 192.973 100.046 192.973 94.807 C 192.973 92.452 193.298 89.731 193.947 86.645 L 202.414 46.625 L 220.384 46.625 L 211.429 89.021 C 211.186 90.320 211.064 91.498 211.064 92.553 C 211.064 95.965 212.302 97.670 214.780 97.670 C 219.165 97.670 222.495 93.995 224.769 86.645 L 233.236 46.625 L 251.206 46.625 L 242.251 89.021 C 241.886 90.442 241.703 91.904 241.703 93.406 C 241.703 96.249 243.409 97.670 246.820 97.670 C 251.490 97.670 254.860 93.995 256.931 86.645 L 262.170 86.645 Z Z M 252.180 109 L 265.398 46.625 L 283.368 46.625 L 281.784 54.361 C 283.855 52.534 286.139 50.787 288.637 49.122 C 291.134 47.457 293.835 46.625 296.738 46.625 C 299.642 46.625 301.824 47.579 303.286 49.488 C 304.748 51.397 305.479 53.224 305.479 54.970 C 305.479 57.975 304.677 60.412 303.073 62.280 C 301.469 64.148 299.530 65.082 297.256 65.082 C 294.982 65.082 293.479 64.564 292.748 63.528 C 292.017 62.493 291.571 61.437 291.408 60.361 C 291.246 59.285 291.033 58.432 290.769 57.803 C 290.505 57.173 289.946 56.858 289.094 56.858 C 287.388 56.858 285.885 57.254 284.586 58.046 C 283.286 58.838 281.804 60.026 280.139 61.610 L 270.150 109 L 252.180 109 Z Z M 334.656 30.057 C 334.656 32.818 333.672 35.143 331.702 37.031 C 329.733 38.919 327.377 39.864 324.636 39.864 C 321.895 39.864 319.570 38.909 317.662 37.001 C 315.753 35.092 314.799 32.777 314.799 30.057 C 314.799 27.336 315.743 24.991 317.631 23.021 C 319.520 21.052 321.855 20.067 324.636 20.067 C 327.418 20.067 329.783 21.042 331.733 22.991 C 333.682 24.940 334.656 27.295 334.656 30.057 Z M 342.392 86.645 C 337.032 102.036 328.078 109.731 315.530 109.731 C 312.240 109.731 309.296 108.553 306.697 106.198 C 304.139 103.843 302.860 100.046 302.860 94.807 C 302.860 92.452 303.185 89.731 303.834 86.645 L 312.301 46.625 L 330.271 46.625 L 321.317 89.021 C 320.992 90.523 320.829 92.005 320.829 93.467 C 320.829 96.269 322.514 97.670 325.885 97.670 C 328.322 97.670 330.585 96.614 332.677 94.503 C 334.768 92.391 336.261 89.772 337.154 86.645 L 342.392 86.645 Z Z M 407.996 86.645 C 402.717 102.036 394.372 109.731 382.961 109.731 C 375.610 109.731 371.529 105.914 370.717 98.279 C 365.275 105.914 358.930 109.731 351.682 109.731 C 344.433 109.731 339.509 106.178 336.910 99.071 C 335.976 96.513 335.509 93.599 335.509 90.330 C 335.509 87.061 335.794 83.792 336.362 80.523 C 336.931 77.254 337.804 73.995 338.981 70.747 C 341.580 63.599 345.296 57.691 350.128 53.021 C 354.961 48.351 360.788 46.016 367.610 46.016 C 371.184 46.016 373.763 46.615 375.346 47.813 C 376.930 49.011 377.722 50.523 377.722 52.351 L 377.722 53.265 L 379.062 46.625 L 397.031 46.625 L 388.077 89.021 C 387.712 90.442 387.529 91.782 387.529 93.041 C 387.529 96.614 389.235 98.401 392.646 98.401 C 397.072 98.401 400.443 94.482 402.757 86.645 L 407.996 86.645 Z M 376.565 58.503 C 376.565 57.731 376.209 56.747 375.499 55.549 C 374.788 54.351 373.275 53.752 370.961 53.752 C 368.646 53.752 366.392 54.990 364.199 57.468 C 358.920 63.437 355.611 72.005 354.271 83.173 C 354.067 84.878 353.966 86.686 353.966 88.594 C 353.966 92.290 354.738 94.868 356.281 96.330 C 357.174 97.223 358.291 97.670 359.631 97.670 C 362.108 97.670 364.362 96.685 366.392 94.716 C 368.423 92.746 369.824 90.056 370.595 86.645 L 376.565 58.503 Z Z M 441.315 86.645 C 435.955 102.036 427.001 109.731 414.453 109.731 C 411.163 109.731 408.219 108.553 405.620 106.198 C 403.062 103.843 401.783 100.046 401.783 94.807 C 401.783 92.452 402.108 89.731 402.757 86.645 L 416.097 24.148 L 434.554 21.651 L 420.239 89.021 C 419.915 90.523 419.752 92.005 419.752 93.467 C 419.752 96.269 421.437 97.670 424.808 97.670 C 427.244 97.670 429.508 96.614 431.600 94.503 C 433.691 92.391 435.183 89.772 436.077 86.645 L 441.315 86.645 Z " transform="matrix(1, 0, 0, 1, -8, -15)"/>
      </g>
    </g>
  </g>
</svg>